<svg width="1200" height="900" viewBox="0 0 1200 900" fill="none" xmlns="http://www.w3.org/2000/svg" role="img" aria-labelledby="title desc">
  <title id="title">デジタルアトリウムのイメージ</title>
  <desc id="desc">光に満ちた仮想ショールームに浮遊する什器を描いた抽象的なイラスト</desc>
  <defs>
    <linearGradient id="bg" x1="0" y1="0" x2="1200" y2="900" gradientUnits="userSpaceOnUse">
      <stop offset="0%" stop-color="#2F2FA2" />
      <stop offset="45%" stop-color="#6C5CE7" />
      <stop offset="100%" stop-color="#C7F5FF" />
    </linearGradient>
    <radialGradient id="glow" cx="50%" cy="35%" r="60%">
      <stop offset="0%" stop-color="#FFFFFF" stop-opacity="0.9" />
      <stop offset="60%" stop-color="#B2B2FF" stop-opacity="0.32" />
      <stop offset="100%" stop-color="#2F2FA2" stop-opacity="0.0" />
    </radialGradient>
    <linearGradient id="panel" x1="0" y1="0" x2="1" y2="1">
      <stop offset="0%" stop-color="#FFFFFF" stop-opacity="0.86" />
      <stop offset="100%" stop-color="#BBC7FF" stop-opacity="0.48" />
    </linearGradient>
    <linearGradient id="accent" x1="0" y1="0" x2="1" y2="1">
      <stop offset="0%" stop-color="#70F2D8" />
      <stop offset="100%" stop-color="#5B8EFF" />
    </linearGradient>
    <filter id="shadow" x="-20%" y="-20%" width="140%" height="140%">
      <feGaussianBlur stdDeviation="24" result="blur"/>
      <feOffset dy="32" dx="0" in="blur" result="offset"/>
      <feColorMatrix in="offset" type="matrix" values="0 0 0 0 0.05  0 0 0 0 0.1  0 0 0 0 0.26  0 0 0 0.35 0"/>
    </filter>
  </defs>
  <rect width="1200" height="900" fill="url(#bg)" />
  <rect x="180" y="120" width="840" height="660" rx="120" fill="url(#glow)" />
  <g filter="url(#shadow)">
    <rect x="230" y="200" width="740" height="420" rx="48" fill="url(#panel)" opacity="0.9" />
  </g>
  <g opacity="0.72">
    <path d="M400 240L580 280L760 240L940 280L760 320L580 280L400 320L220 280L400 240Z" fill="#F2F5FF" />
    <path d="M300 360L420 400L600 360L780 400L900 360" stroke="#6C5CE7" stroke-width="5" stroke-linecap="round" stroke-linejoin="round" opacity="0.38" />
  </g>
  <g opacity="0.9">
    <rect x="320" y="330" width="180" height="240" rx="32" fill="url(#accent)" />
    <rect x="520" y="300" width="180" height="290" rx="36" fill="#FFFFFF" opacity="0.88" />
    <rect x="720" y="330" width="180" height="240" rx="32" fill="url(#accent)" />
  </g>
  <ellipse cx="420" cy="630" rx="120" ry="16" fill="#1B1C60" fill-opacity="0.24" />
  <ellipse cx="600" cy="660" rx="132" ry="20" fill="#1B1C60" fill-opacity="0.16" />
  <ellipse cx="780" cy="630" rx="120" ry="16" fill="#1B1C60" fill-opacity="0.24" />
</svg>
